<svg xmlns="http://www.w3.org/2000/svg" width="1200" height="675" viewBox="0 0 1200 675">
  <defs>
    <linearGradient id="civicGrad" x1="0%" y1="0%" x2="100%" y2="100%">
      <stop offset="0%" style="stop-color:#1a1a2e;stop-opacity:1" />
      <stop offset="100%" style="stop-color:#16213e;stop-opacity:1" />
    </linearGradient>
  </defs>
  <rect width="1200" height="675" fill="url(#civicGrad)"/>
  
  <!-- Силуэт Honda Civic Type R -->
  <path d="M 130 450 L 180 420 L 280 400 L 430 380 L 580 370 L 730 380 L 880 400 L 980 430 L 1030 450 L 1030 500 L 980 500 L 960 470 L 930 470 L 910 500 L 830 500 L 810 470 L 730 470 L 710 500 L 630 500 L 610 470 L 530 470 L 510 500 L 430 500 L 410 470 L 330 470 L 310 500 L 230 500 L 210 470 L 130 470 Z" 
        fill="#ff3366" opacity="0.8"/>
  
  <!-- Колеса -->
  <circle cx="330" cy="500" r="40" fill="#0a0a0f" stroke="#ff3366" stroke-width="3"/>
  <circle cx="780" cy="500" r="40" fill="#0a0a0f" stroke="#ff3366" stroke-width="3"/>
  
  <!-- Фары -->
  <ellipse cx="190" cy="440" rx="15" ry="10" fill="#00f0ff"/>
  <ellipse cx="980" cy="440" rx="15" ry="10" fill="#00f0ff"/>
  
  <!-- Текст -->
  <text x="600" y="300" font-family="Arial, sans-serif" font-size="48" font-weight="bold" fill="#ff3366" text-anchor="middle">HONDA CIVIC TYPE R</text>
  <text x="600" y="340" font-family="Arial, sans-serif" font-size="24" fill="#f0f0f0" text-anchor="middle">FK8 VTEC TURBO 2017</text>
  
  <!-- VTEC логотип -->
  <text x="600" y="420" font-family="Arial, sans-serif" font-size="36" font-weight="bold" fill="#00f0ff" text-anchor="middle">VTEC</text>
  
  <!-- Декоративные элементы -->
  <line x1="200" y1="600" x2="1000" y2="600" stroke="#ff3366" stroke-width="2" opacity="0.5"/>
  <text x="600" y="630" font-family="Arial, sans-serif" font-size="14" fill="#888" text-anchor="middle">JDM CULTURE BLOG</text>
</svg>
