<svg xmlns="http://www.w3.org/2000/svg" width="1200" height="675" viewBox="0 0 1200 675">
  <defs>
    <linearGradient id="rx7Grad" x1="0%" y1="0%" x2="100%" y2="100%">
      <stop offset="0%" style="stop-color:#1a1a2e;stop-opacity:1" />
      <stop offset="100%" style="stop-color:#16213e;stop-opacity:1" />
    </linearGradient>
  </defs>
  <rect width="1200" height="675" fill="url(#rx7Grad)"/>
  
  <!-- Силуэт Mazda RX-7 FD -->
  <path d="M 120 450 L 170 420 L 250 400 L 400 380 L 550 370 L 700 380 L 850 400 L 950 430 L 1000 450 L 1000 500 L 950 500 L 930 470 L 900 470 L 880 500 L 800 500 L 780 470 L 700 470 L 680 500 L 600 500 L 580 470 L 500 470 L 480 500 L 400 500 L 380 470 L 300 470 L 280 500 L 200 500 L 180 470 L 120 470 Z" 
        fill="#00f0ff" opacity="0.8"/>
  
  <!-- Колеса -->
  <circle cx="320" cy="500" r="40" fill="#0a0a0f" stroke="#00f0ff" stroke-width="3"/>
  <circle cx="750" cy="500" r="40" fill="#0a0a0f" stroke="#00f0ff" stroke-width="3"/>
  
  <!-- Фары -->
  <ellipse cx="180" cy="440" rx="15" ry="10" fill="#ff3366"/>
  <ellipse cx="970" cy="440" rx="15" ry="10" fill="#ff3366"/>
  
  <!-- Текст -->
  <text x="600" y="300" font-family="Arial, sans-serif" font-size="48" font-weight="bold" fill="#00f0ff" text-anchor="middle">MAZDA RX-7 FD</text>
  <text x="600" y="340" font-family="Arial, sans-serif" font-size="24" fill="#f0f0f0" text-anchor="middle">13B-REW ROTARY ENGINE 1992</text>
  
  <!-- Роторный символ -->
  <circle cx="600" cy="420" r="30" fill="none" stroke="#ff3366" stroke-width="3"/>
  <path d="M 600 390 L 626 435 L 574 435 Z" fill="#ff3366"/>
  
  <!-- Декоративные элементы -->
  <line x1="200" y1="600" x2="1000" y2="600" stroke="#00f0ff" stroke-width="2" opacity="0.5"/>
  <text x="600" y="630" font-family="Arial, sans-serif" font-size="14" fill="#888" text-anchor="middle">JDM CULTURE BLOG</text>
</svg>
